# AST/ASF file generated using VICON BodyLanguage
# -----------------------------------------------
:version 1.10
:name VICON
:units
  mass 1.0
  length 0.45
  angle deg
:documentation
   .ast/.asf automatically generated from VICON data using
   VICON BodyBuilder and BodyLanguage model FoxedUp or BRILLIANT.MOD
:root
   order TX TY TZ RX RY RZ
   axis XYZ
   position 0 0 0  
   orientation 0 0 0 
:bonedata
  begin
     id 1 
     name lhipjoint
     direction 0.78388 -0.462562 0.414208 
     length 3.01181 
     axis 0 0 0  XYZ
  end
  begin
     id 2 
     name lfemur
     direction 0.34202 -0.939693 0  
     length 6.04673  
     axis 0 0 20  XYZ
    dof rx ry rz
    limits (-160.0 20.0)
           (-70.0 70.0)
           (-60.0 70.0)
  end
  begin
     id 3 
     name ltibia
     direction 0.34202 -0.939693 0   
     length 7.211   
     axis 0 0 20   XYZ
    dof rx
    limits (-10.0 170.0)
  end
  begin
     id 4 
     name lfoot
     direction 0.121887 -0.334882 0.934344   
     length 2.13567   
     axis -90 7.62852e-016 20   XYZ
    dof rx rz
    limits (-45.0 90.0)
           (-70.0 20.0)
  end
  begin
     id 5 
     name ltoes
     direction 1.53555e-011 -4.2179e-011 1   
     length 1.05957   
     axis -90 7.62852e-016 20   XYZ
    dof rx
    limits (-90.0 20.0)
  end
  begin
     id 6 
     name rhipjoint
     direction -0.769387 -0.475875 0.426129   
     length 2.92756  
     axis 0 0 0  XYZ 
  end
  begin
     id 7 
     name rfemur
     direction -0.34202 -0.939693 0   
     length 6.35468   
     axis 0 0 -20   XYZ
    dof rx ry rz
    limits (-160.0 20.0)
           (-70.0 70.0)
           (-70.0 60.0)
  end
  begin
     id 8 
     name rtibia
     direction -0.34202 -0.939693 0   
     length 7.37886   
     axis 0 0 -20   XYZ
    dof rx
    limits (-10.0 170.0)
 end
 begin
     id 9 
     name rfoot
     direction -0.101763 -0.279592 0.954711   
     length 2.21478  
     axis -90 -7.62852e-016 -20   XYZ
    dof rx rz
    limits (-45.0 90.0)
           (-20.0 70.0)
  end
  begin
     id 10 
     name rtoes
     direction -1.53494e-011 -4.21851e-011 1   
     length 1.10506   
     axis -90 -7.62852e-016 -20   XYZ
    dof rx
    limits (-90.0 20.0)
  end
  begin
     id 11 
     name lowerback
     direction 0.00747405 0.999267 0.0375481   
     length 2.13259   
     axis 0 0 0   XYZ
    dof rx ry rz
    limits (-20.0 45.0)
           (-30.0 30.0)
           (-30.0 30.0)
  end
  begin
     id 12 
     name upperback
     direction 0.00661626 0.996177 0.0871029   
     length 2.10528   
     axis 0 0 0   XYZ
    dof rx ry rz
    limits (-20.0 45.0)
           (-30.0 30.0)
           (-30.0 30.0)
  end
  begin
     id 13 
     name thorax
     direction 0.00320659 0.997679 0.0680167   
     length 2.11338   
     axis 0 0 0   XYZ
    dof rx ry rz
    limits (-20.0 45.0)
           (-30.0 30.0)
           (-30.0 30.0)
  end
  begin
     id 14 
     name lowerneck
     direction 0.0374841 0.973033 0.227602   
     length 1.42765   
     axis 0 0 0   XYZ
    dof rx ry rz
    limits (-20.0 45.0)
           (-30.0 30.0)
           (-30.0 30.0)
  end
  begin
     id 15 
     name upperneck
     direction 0.00481585 0.989155 -0.146795   
     length 1.47593   
     axis 0 0 0   XYZ
    dof rx ry rz
    limits (-20.0 45.0)
           (-30.0 30.0)
           (-30.0 30.0)
  end
  begin
     id 16
     name head
     direction -0.00292522 0.997206 -0.0746423  
     length 1.48116  
     axis 0 0 0   XYZ
    dof rx ry rz
    limits (-20.0 45.0)
           (-30.0 30.0)
           (-30.0 30.0)
  end
  begin
     id 17 
     name lclavicle
     direction 0.951444 0.305606 0.0368784  
     length 3.01855  
     axis 0 0 0   XYZ
    dof ry rz
    limits (-20.0 10.0)
           (0.0 20.0)
  end
  begin
     id 18 
     name lhumerus
     direction 1 -4.48977e-011 2.61664e-027   
     length 5.52731   
     axis 180 -30 -90   XYZ
    dof rx ry rz
    limits (-60.0 90.0)
           (-90.0 90.0)
           (-90.0 90.0)
  end
  begin
     id 19
     name lradius
     direction 1 -4.48944e-011 8.22157e-027   
     length 3.11059   
     axis 180 -30 -90   XYZ
    dof rx
    limits (-10.0 170.0)
  end
  begin
     id 20
     name lwrist
     direction 1 -4.48976e-011 1.5779e-026   
     length 1.5553   
     axis -1.15221e-014 90 90   XYZ
    dof ry
    limits (-180.0 0.0)
 end
  begin
     id 21 
     name lhand
     direction 1 -4.49025e-011 3.1558e-026   
     length 0.419626   
     axis -2.01367e-014 90 90   XYZ
    dof rx rz
    limits (-90.0 90.0)
           (-45.0 45.0)
  end
  begin
     id 22 
     name lfingers
     direction 1 -4.4904e-011 6.31161e-026   
     length 0.338313   
     axis -4.02734e-014 90 90   XYZ
    dof rx
    limits (0.0 90.0)
  end
  begin
     id 23
     name lthumb
     direction 0.707107 -6.35004e-011 0.707107   
     length 0.485752   
     axis -90 45 2.85299e-015   XYZ
    dof rx rz
    limits (-45.0 45.0)
           (-45.0 45.0)
  end
  begin
     id 24 
     name rclavicle
     direction -0.968876 0.223791 0.105816   
     length 3.04177  
     axis 0 0 0   XYZ 
    dof ry rz
    limits (-10.0 20.0)
           (-20.0 0.0)
  end
  begin
     id 25 
     name rhumerus
     direction -1 -4.48962e-011 -1.01384e-027  
     length 5.25396   
     axis 180 30 90   XYZ
    dof rx ry rz
    limits (-90.0 60.0)
           (-90.0 90.0)
           (-90.0 90.0)
  end
  begin
     id 26 
     name rradius
     direction -1 -4.48955e-011 8.88542e-027   
     length 3.10567   
     axis 180 30 90   XYZ
    dof rx
    limits (-10.0 170.0)
  end
  begin
     id 27 
     name rwrist
     direction -1 -4.48994e-011 1.5779e-026   
     length 1.55283   
     axis -1.15221e-014 -90 -90   XYZ
    dof ry
    limits (-180.0 0.0)
  end
  begin
     id 28
     name rhand
     direction -1 -4.48891e-011 3.1558e-026   
     length 0.498676   
     axis -2.01367e-014 -90 -90   XYZ
    dof rx rz
    limits (-90.0 90.0)
           (-45.0 45.0)
  end
  begin
     id 29
     name rfingers
     direction -1 -4.48972e-011 6.31161e-026   
     length 0.402045   
     axis -4.02734e-014 -90 -90   XYZ
    dof rx
    limits (0.0 90.0)
  end
  begin
     id 30
     name rthumb
     direction -0.707107 -6.34849e-011 0.707107   
     length 0.577259   
     axis -90 -45 -2.85299e-015   XYZ
    dof rx rz
    limits (-45.0 45.0)
           (-45.0 45.0)
  end
:hierarchy
  begin
    root lhipjoint rhipjoint lowerback
    lhipjoint lfemur
    lfemur ltibia
    ltibia lfoot
    lfoot ltoes
    rhipjoint rfemur
    rfemur rtibia
    rtibia rfoot
    rfoot rtoes
    lowerback upperback
    upperback thorax
    thorax lowerneck lclavicle rclavicle
    lowerneck upperneck
    upperneck head
    lclavicle lhumerus
    lhumerus lradius
    lradius lwrist
    lwrist lhand lthumb
    lhand lfingers
    rclavicle rhumerus
    rhumerus rradius
    rradius rwrist
    rwrist rhand rthumb
    rhand rfingers
  end

#!OML:ASF H:\Pregnant\Project 1\Capture day 1\Session 1\femalepreg.ASF
:FULLY-SPECIFIED
:DEGREES
144
root 7.87501 0.84176 26.8848 78.9905 -34.4841 183.736
lowerback 9.17663 0.263779 16.4278
upperback 4.15701 1.50977 -2.82501
thorax -0.110852 0.966716 -12.574
lowerneck -21.9506 20.0786 21.03
upperneck 21.9616 26.5838 -15.8904
head 16.6256 10.6713 -3.53784
rclavicle -4.77083e-014 4.67144e-014
rhumerus -26.6018 9.64985 -78.0993
rradius 69.2305
rwrist -3.96373
rhand -3.8721 -17.5697
rfingers 7.12502
rthumb 21.8768 -46.3529
lclavicle -4.77083e-014 4.67144e-014
lhumerus 10.3713 -31.9124 15.3363
lradius 51.4475
lwrist 50.0154
lhand -0.892446 23.3855
lfingers 7.12502
lthumb 24.7353 51.8063
rfemur -54.8184 0.24441 12.9368
rtibia 138.704
rfoot 10.9156 19.5852
rtoes -15.0699
lfemur -67.5702 21.2186 -17.607
ltibia 130.068
lfoot 34.5162 -18.1735
ltoes 10.5919
145
root 7.88247 0.840813 26.8816 78.9396 -34.3807 183.662
lowerback 9.20898 0.262698 16.4196
upperback 4.28312 1.49804 -2.76699
thorax 0.00405364 0.975549 -12.5001
lowerneck -21.9754 20.1247 21.0925
upperneck 22.0569 26.6184 -15.7812
head 16.6674 10.7004 -3.4882
rclavicle 5.08889e-014 2.18663e-014
rhumerus -25.5873 10.3272 -78.1747
rradius 69.9242
rwrist -4.32988
rhand -4.23703 -17.6004
rfingers 7.12502
rthumb 21.5263 -46.4242
lclavicle 5.08889e-014 2.18663e-014
lhumerus 10.5063 -31.5269 14.9068
lradius 50.8557
lwrist 50.0479
lhand -0.960592 23.2635
lfingers 7.12502
lthumb 24.67 51.6932
rfemur -54.7203 0.668142 13.3675
rtibia 138.671
rfoot 10.7911 19.4601
rtoes -14.6678
lfemur -67.8399 22.193 -17.6703
ltibia 130.705
lfoot 34.461 -18.2042
ltoes 11.0583
146
root 7.88962 0.839886 26.8785 78.8796 -34.2737 183.592
lowerback 9.2576 0.269333 16.4326
upperback 4.39789 1.50223 -2.71382
thorax 0.104046 0.990799 -12.4464
lowerneck -21.9831 20.1466 21.138
upperneck 22.1618 26.6228 -15.6649
head 16.7002 10.7188 -3.44474
rclavicle -1.90833e-014 1.11816e-013
rhumerus -24.6093 10.9791 -78.2344
rradius 70.6044
rwrist -4.69501
rhand -4.58726 -17.6259
rfingers 7.12502
rthumb 21.1899 -46.4878
lclavicle -1.90833e-014 1.11816e-013
lhumerus 10.6685 -31.1332 14.4865
lradius 50.2375
lwrist 50.0967
lhand -1.00141 23.1708
lfingers 7.12502
lthumb 24.6309 51.6059
rfemur -54.6097 1.09434 13.8066
rtibia 138.636
rfoot 10.6361 19.3644
rtoes -14.268
lfemur -68.072 23.1893 -17.6989
ltibia 131.32
lfoot 34.4271 -18.2127
ltoes 11.6304
147
root 7.89644 0.838959 26.8756 78.8127 -34.1633 183.528
lowerback 9.31997 0.282791 16.4658
upperback 4.49998 1.52092 -2.66539
thorax 0.188518 1.01172 -12.4119
lowerneck -21.9735 20.145 21.163
upperneck 22.2804 26.5978 -15.5319
head 16.723 10.7278 -3.403
rclavicle 3.97569e-014 -1.13009e-013
rhumerus -23.6663 11.6113 -78.2798
rradius 71.2698
rwrist -5.05783
rhand -4.92329 -17.6498
rfingers 7.12502
rthumb 20.8671 -46.5475
lclavicle 3.97569e-014 -1.13009e-013
lhumerus 10.8565 -30.7338 14.0745
lradius 49.596
lwrist 50.1715
lhand -1.02237 23.1134
lfingers 7.12502
lthumb 24.6108 51.5512
rfemur -54.4902 1.52063 14.2535
rtibia 138.598
rfoot 10.4574 19.3005
rtoes -13.8909
lfemur -68.2664 24.2063 -17.6916
ltibia 131.916
lfoot 34.4079 -18.2194
ltoes 12.2615
148
root 7.90291 0.838016 26.8727 78.7412 -34.0502 183.47
lowerback 9.39055 0.30121 16.5158
upperback 4.59149 1.55021 -2.62133
thorax 0.261411 1.03683 -12.3935
lowerneck -21.951 20.1253 21.1687
upperneck 22.4149 26.549 -15.3772
head 16.7382 10.7298 -3.35898
rclavicle -1.59028e-015 -7.41467e-014
rhumerus -22.7473 12.2326 -78.3126
rradius 71.9165
rwrist -5.41836
rhand -5.24539 -17.6756
rfingers 7.12502
rthumb 20.5576 -46.6071
lclavicle -1.59028e-015 -7.41467e-014
lhumerus 11.0637 -30.3243 13.6729
lradius 48.9342
lwrist 50.2785
lhand -1.03432 23.0944
lfingers 7.12502
lthumb 24.5993 51.5338
rfemur -54.3659 1.94557 14.7073
rtibia 138.559
rfoot 10.2634 19.2683
rtoes -13.5455
lfemur -68.422 25.2441 -17.6486
ltibia 132.491
lfoot 34.3937 -18.2475
ltoes 12.8997
149
root 7.90899 0.837049 26.8699 78.6672 -33.9351 183.417
lowerback 9.46271 0.322354 16.5787
upperback 4.67641 1.58523 -2.58136
thorax 0.329029 1.06439 -12.388
lowerneck -21.9227 20.0943 21.1585
upperneck 22.5658 26.4845 -15.199
head 16.7492 10.7278 -3.3091
rclavicle -3.97569e-014 -1.46107e-014
rhumerus -21.8365 12.8525 -78.3336
rradius 72.5392
rwrist -5.77786
rhand -5.55289 -17.7066
rfingers 7.12502
rthumb 20.2621 -46.6698
lclavicle -3.97569e-014 -1.46107e-014
lhumerus 11.2818 -29.8971 13.2848
lradius 48.2548
lwrist 50.4207
lhand -1.04683 23.1143
lfingers 7.12502
lthumb 24.5873 51.5553
rfemur -54.2405 2.36841 15.1663
rtibia 138.519
rfoot 10.0615 19.2654
rtoes -13.2341
lfemur -68.5378 26.3024 -17.5714
ltibia 133.046
lfoot 34.3731 -18.3182
ltoes 13.5006
150
root 7.91463 0.836045 26.8672 78.5936 -33.8184 183.369
lowerback 9.53074 0.344838 16.6523
upperback 4.75764 1.62266 -2.54586
thorax 0.396586 1.09333 -12.3941
lowerneck -21.8954 20.0577 21.136
upperneck 22.7338 26.4103 -14.9958
head 16.7593 10.724 -3.25073
rclavicle -4.29375e-014 3.46879e-014
rhumerus -20.9209 13.4768 -78.343
rradius 73.1325
rwrist -6.13731
rhand -5.84332 -17.742
rfingers 7.12502
rthumb 19.983 -46.7345
lclavicle -4.29375e-014 3.46879e-014
lhumerus 11.5065 -29.4488 12.9096
lradius 47.5609
lwrist 50.6002
lhand -1.06802 23.171
lfingers 7.12502
lthumb 24.567 51.6148
rfemur -54.1182 2.78948 15.6286
rtibia 138.477
rfoot 9.85691 19.288
rtoes -12.9539
lfemur -68.6136 27.381 -17.4624
ltibia 133.58
lfoot 34.3333 -18.4486
ltoes 14.0314
151
root 7.91976 0.834979 26.8647 78.5227 -33.7005 183.326
lowerback 9.59144 0.368159 16.737
upperback 4.8359 1.6612 -2.51531
thorax 0.466303 1.12332 -12.4123
lowerneck -21.873 20.019 21.1031
upperneck 22.9193 26.3297 -14.7669
head 16.7702 10.7197 -3.18234
rclavicle 3.02153e-014 -1.0148e-013
rhumerus -19.9941 14.1074 -78.3401
rradius 73.693
rwrist -6.49735
rhand -6.11209 -17.7773
rfingers 7.12502
rthumb 19.7246 -46.7966
lclavicle 3.02153e-014 -1.0148e-013
lhumerus 11.7376 -28.9806 12.545
lradius 46.8554
lwrist 50.8171
lhand -1.10218 23.2606
lfingers 7.12502
lthumb 24.5343 51.7089
rfemur -54.0022 3.20985 16.0921
rtibia 138.435
rfoot 9.65106 19.3318
rtoes -12.701
lfemur -68.6508 28.4788 -17.3243
ltibia 134.096
lfoot 34.2592 -18.6497
ltoes 14.4651
152
root 7.92435 0.833818 26.8626 78.4567 -33.5815 183.288
lowerback 9.64388 0.392592 16.8349
upperback 4.91019 1.70139 -2.49059
thorax 0.537986 1.15466 -12.4447
lowerneck -21.8574 19.979 21.0604
upperneck 23.1218 26.2434 -14.5113
head 16.7825 10.7151 -3.10319
rclavicle -4.77083e-015 -8.29926e-014
rhumerus -19.0565 14.7423 -78.3245
rradius 74.2195
rwrist -6.85746
rhand -6.35345 -17.806
rfingers 7.12502
rthumb 19.4926 -46.8489
lclavicle -4.77083e-015 -8.29926e-014
lhumerus 11.9786 -28.4978 12.1864
lradius 46.1412
lwrist 51.0703
lhand -1.1502 23.3777
lfingers 7.12502
lthumb 24.4882 51.8322
rfemur -53.895 3.63114 16.5547
rtibia 138.391
rfoot 9.44239 19.3929
rtoes -12.4731
lfemur -68.6514 29.5946 -17.1594
ltibia 134.593
lfoot 34.1346 -18.9259
ltoes 14.7783
153
root 7.92834 0.832525 26.8609 78.3976 -33.4611 183.255
lowerback 9.68825 0.418799 16.9482
upperback 4.97872 1.74461 -2.47226
thorax 0.610215 1.18795 -12.4936
lowerneck -21.8482 19.9375 21.008
upperneck 23.3402 26.1506 -14.23
head 16.7956 10.7102 -3.01387
rclavicle 1.59028e-015 9.64106e-015
rhumerus -18.113 15.3785 -78.2956
rradius 74.7145
rwrist -7.21631
rhand -6.5623 -17.8229
rfingers 7.12502
rthumb 19.2917 -46.886
lclavicle 1.59028e-015 9.64106e-015
lhumerus 12.2336 -28.0055 11.8302
lradius 45.4208
lwrist 51.3554
lhand -1.20992 23.5161
lfingers 7.12502
lthumb 24.431 51.9783
rfemur -53.798 4.05538 17.0149
rtibia 138.347
rfoot 9.22689 19.4693
rtoes -12.2703
lfemur -68.6179 30.7281 -16.9689
ltibia 135.076
lfoot 33.9414 -19.2752
ltoes 14.9408
154
root 7.93173 0.831067 26.8597 78.3463 -33.3396 183.228
lowerback 9.72482 0.447218 17.0781
upperback 5.04084 1.79167 -2.4608
thorax 0.682572 1.22362 -12.5602
lowerneck -21.8448 19.8948 20.9483
upperneck 23.5706 26.0519 -13.9278
head 16.8094 10.7047 -2.91638
rclavicle 2.70347e-014 -2.06736e-014
rhumerus -17.1689 16.0128 -78.2539
rradius 75.1827
rwrist -7.57158
rhand -6.73531 -17.8254
rfingers 7.12502
rthumb 19.1254 -46.905
lclavicle 2.70347e-014 -2.06736e-014
lhumerus 12.5049 -27.5054 11.475
lradius 44.6967
lwrist 51.6635
lhand -1.27682 23.6695
lfingers 7.12502
lthumb 24.3669 52.1403
rfemur -53.7117 4.484 17.4708
rtibia 138.303
rfoot 9.00042 19.5615
rtoes -12.0931
lfemur -68.5516 31.8798 -16.7523
ltibia 135.548
lfoot 33.6632 -19.687
ltoes 14.9222
155
root 7.93453 0.829429 26.8591 78.3033 -33.2175 183.206
lowerback 9.75275 0.478063 17.2242
upperback 5.09734 1.84257 -2.45667
thorax 0.756504 1.2619 -12.6449
lowerneck -21.8475 19.852 20.8851
upperneck 23.8076 25.9485 -13.6118
head 16.8239 10.6988 -2.8135
rclavicle -1.59028e-014 -1.80894e-014
rhumerus -16.2276 16.6432 -78.2011
rradius 75.63
rwrist -7.9207
rhand -6.87167 -17.8162
rfingers 7.12502
rthumb 18.9942 -46.9088
lclavicle -1.59028e-014 -1.80894e-014
lhumerus 12.7916 -26.9937 11.1222
lradius 43.9709
lwrist 51.9817
lhand -1.34634 23.8316
lfingers 7.12502
lthumb 24.3002 52.3114
rfemur -53.6359 4.91768 17.9207
rtibia 138.257
rfoot 8.7605 19.6723
rtoes -11.9403
lfemur -68.4529 33.05 -16.5071
ltibia 136.01
lfoot 33.2883 -20.1413
ltoes 14.6971
156
root 7.93682 0.827617 26.8591 78.2696 -33.0955 183.19
lowerback 9.77066 0.511811 17.3856
upperback 5.14918 1.89749 -2.46032
thorax 0.833972 1.30311 -12.7474
lowerneck -21.8556 19.8098 20.8234
upperneck 24.0451 25.8416 -13.2908
head 16.8392 10.6923 -2.709
rclavicle -6.36111e-015 7.70291e-014
rhumerus -15.2924 17.2668 -78.1395
rradius 76.0626
rwrist -8.26095
rhand -6.97379 -17.8005
rfingers 7.12502
rthumb 18.896 -46.9026
lclavicle -6.36111e-015 7.70291e-014
lhumerus 13.0924 -26.4667 10.7736
lradius 43.2464
lwrist 52.2964
lhand -1.41651 23.9968
lfingers 7.12502
lthumb 24.2329 52.4855
rfemur -53.5708 5.35565 18.3626
rtibia 138.211
rfoot 8.50791 19.8065
rtoes -11.809
lfemur -68.3221 34.2377 -16.2301
ltibia 136.466
lfoot 32.8122 -20.6099
ltoes 14.2556
157
root 7.93866 0.825656 26.8597 78.2456 -32.9743 183.181
lowerback 9.77724 0.549098 17.5611
upperback 5.19717 1.95679 -2.47233
thorax 0.916825 1.34772 -12.8678
lowerneck -21.8687 19.7683 20.7669
upperneck 24.2781 25.7314 -12.9717
head 16.8549 10.6849 -2.60598
rclavicle -5.24792e-014 -6.35117e-014
rhumerus -14.3662 17.8801 -78.0725
rradius 76.4848
rwrist -8.58988
rhand -7.04633 -17.7856
rfingers 7.12502
rthumb 18.8263 -46.8945
lclavicle -5.24792e-014 -6.35117e-014
lhumerus 13.4064 -25.9215 10.4314
lradius 42.5267
lwrist 52.5945
lhand -1.49004 24.1592
lfingers 7.12502
lthumb 24.1624 52.6574
rfemur -53.5165 5.79575 18.7946
rtibia 138.163
rfoot 8.24654 19.9699
rtoes -11.6948
lfemur -68.1597 35.4393 -15.9173
ltibia 136.913
lfoot 32.2398 -21.0604
ltoes 13.61
158
root 7.94017 0.823596 26.8608 78.2317 -32.8546 183.179
lowerback 9.77156 0.590535 17.7486
upperback 5.24173 2.02085 -2.4926
thorax 1.00616 1.39602 -13.0047
lowerneck -21.8854 19.7274 20.719
upperneck 24.5025 25.6179 -12.6604
head 16.8706 10.6764 -2.50733
rclavicle 7.95139e-015 1.8487e-014
rhumerus -13.4516 18.4802 -78.0028
rradius 76.8991
rwrist -8.90614
rhand -7.09552 -17.777
rfingers 7.12502
rthumb 18.779 -46.8906
lclavicle 7.95139e-015 1.8487e-014
lhumerus 13.7318 -25.3593 10.0973
lradius 41.8162
lwrist 52.8659
lhand -1.57437 24.3125
lfingers 7.12502
lthumb 24.0816 52.8214
rfemur -53.4727 6.23475 19.2155
rtibia 138.112
rfoot 7.98293 20.1688
rtoes -11.5935
lfemur -67.9663 36.6479 -15.5646
ltibia 137.352
lfoot 31.5867 -21.46
ltoes 12.8045
